<svg width="512" height="512" viewBox="0 0 512 512" fill="none" xmlns="http://www.w3.org/2000/svg">
  <defs>
    <linearGradient id="bg" x1="96" y1="48" x2="432" y2="464" gradientUnits="userSpaceOnUse">
      <stop stop-color="#7E9A73"/>
      <stop offset="0.58" stop-color="#5D7556"/>
      <stop offset="1" stop-color="#435A42"/>
    </linearGradient>
    <radialGradient id="mist" cx="0" cy="0" r="1" gradientUnits="userSpaceOnUse" gradientTransform="translate(178 134) rotate(46.8) scale(250.63 223.758)">
      <stop stop-color="#FFFFFF" stop-opacity="0.76"/>
      <stop offset="1" stop-color="#FFFFFF" stop-opacity="0"/>
    </radialGradient>
    <radialGradient id="glow" cx="0" cy="0" r="1" gradientUnits="userSpaceOnUse" gradientTransform="translate(372 370) rotate(180) scale(220 180)">
      <stop stop-color="#F2E3B7" stop-opacity="0.54"/>
      <stop offset="1" stop-color="#F2E3B7" stop-opacity="0"/>
    </radialGradient>
    <filter id="shadow" x="82" y="90" width="348" height="332" filterUnits="userSpaceOnUse" color-interpolation-filters="sRGB">
      <feFlood flood-opacity="0" result="BackgroundImageFix"/>
      <feColorMatrix in="SourceAlpha" type="matrix" values="0 0 0 0 0 0 0 0 0 0 0 0 0 0 0 0 0 0 127 0" result="hardAlpha"/>
      <feOffset dy="18"/>
      <feGaussianBlur stdDeviation="18"/>
      <feComposite in2="hardAlpha" operator="out"/>
      <feColorMatrix type="matrix" values="0 0 0 0 0.2 0 0 0 0 0.255 0 0 0 0 0.196 0 0 0 0.28 0"/>
      <feBlend mode="normal" in2="BackgroundImageFix" result="effect1_dropShadow_1_2"/>
      <feBlend mode="normal" in="SourceGraphic" in2="effect1_dropShadow_1_2" result="shape"/>
    </filter>
  </defs>

  <rect x="28" y="28" width="456" height="456" rx="136" fill="url(#bg)"/>
  <rect x="28" y="28" width="456" height="456" rx="136" fill="url(#mist)"/>
  <rect x="28" y="28" width="456" height="456" rx="136" fill="url(#glow)"/>

  <circle cx="382" cy="128" r="38" fill="#F7F3E7" fill-opacity="0.18"/>
  <circle cx="136" cy="378" r="54" fill="#D8E1D2" fill-opacity="0.18"/>

  <g filter="url(#shadow)">
    <path d="M188 198L256 278" stroke="#F8F4E8" stroke-width="28" stroke-linecap="round"/>
    <path d="M324 198L256 278" stroke="#F8F4E8" stroke-width="28" stroke-linecap="round"/>
    <path d="M256 278V340" stroke="#F8F4E8" stroke-width="28" stroke-linecap="round"/>

    <circle cx="188" cy="198" r="34" fill="#F8F4E8"/>
    <circle cx="324" cy="198" r="34" fill="#F8F4E8"/>
    <circle cx="256" cy="340" r="38" fill="#F8F4E8"/>

    <path d="M256 132C279.5 132 300 152.5 300 176C277 176 256 154.5 256 132Z" fill="#F2E3B7"/>
    <path d="M256 132C232.5 132 212 152.5 212 176C235 176 256 154.5 256 132Z" fill="#DCE6D5"/>
    <path d="M256 148V194" stroke="#F8F4E8" stroke-width="14" stroke-linecap="round"/>
  </g>
</svg>
